<svg xmlns="http://www.w3.org/2000/svg" xmlns:xlink="http://www.w3.org/1999/xlink" width="144" height="40" viewBox="0 0 144 40">
    <defs>
        <path id="4zn81veoka" d="M0 0L143.986 0 143.986 39.337 0 39.337z"/>
    </defs>
    <g fill="none" fill-rule="evenodd">
        <g>
            <g>
                <path fill="#FFF" fill-rule="nonzero" d="M97.666 29.22h5.173c.238 0 .43-.194.43-.433V16.982c0-.395.319-.715.711-.715h5.512c.392 0 .71.32.71.715v11.805c0 .24.193.433.43.433h5.174c.238 0 .43-.194.43-.433v-3.352l3.386 3.57c.13.138.31.215.498.215h12.136c.238 0 .43-.194.43-.433v-5.201c0-.24-.192-.433-.43-.433h-9.278c-.392 0-.71-.32-.71-.714V16.9c0-.395.318-.715.71-.715h9.278c.238 0 .43-.194.43-.432V10.55c0-.24-.192-.432-.43-.432H120.12c-.189 0-.369.078-.499.214l-3.387 3.579-3.388-3.579c-.13-.136-.31-.214-.498-.214h-11.23c-.188 0-.369.078-.498.215l-3.196 3.387c-.121.128-.188.298-.188.475v14.592c0 .24.192.433.43.433" transform="translate(-115 -50) translate(115 50)"/>
                <g transform="translate(-115 -50) translate(115 50)">
                    <mask id="4v3esbszwb" fill="#fff">
                        <use xlink:href="#4zn81veoka"/>
                    </mask>
                    <path fill="#FFF" fill-rule="nonzero" d="M142.716 29.206l-8.745 8.855H80.133l8.24-8.336.004-.003V1.276h54.34v27.93h-.001zM77.064 10.534l-6.707 10.557c-.027.044-.042.094-.042.146v4.64c0 .073-.028.141-.08.192L67.18 29.14c-.05.05-.119.08-.19.08h-1.436c-.148 0-.268-.121-.268-.27v-7.713c0-.052-.015-.102-.043-.146l-6.707-10.557c-.115-.18.014-.416.227-.416h5.196c.095 0 .182.05.231.131l3.6 6.024c.106.176.36.175.464-.003l3.52-6.019c.048-.082.137-.133.232-.133h4.831c.213 0 .342.236.227.416zM62.54 29.22h-4.753c-.116 0-.218-.075-.255-.185l-.995-3.001c-.037-.111-.14-.186-.256-.186h-6.486c-.116 0-.218.075-.255.186l-.995 3c-.037.111-.14.186-.256.186h-4.501c-.189 0-.319-.19-.252-.367l7.005-18.56c.04-.106.14-.175.252-.175h4.742c.111 0 .212.07.252.175l7.005 18.56c.066.177-.064.367-.252.367zm-20.25-4.127l-1.496 3.942c-.037.11-.14.185-.256.185H28.69c-.15 0-.27-.121-.27-.27V13.46c0-.072.028-.14.08-.19l3.054-3.073c.051-.05.12-.08.19-.08h1.437c.149 0 .27.122.27.271v14.067c0 .149.12.27.268.27h8.319c.19 0 .32.19.252.368zm-15.85-5.396c0 .072-.029.14-.08.192l-3.055 3.071c-.05.05-.119.08-.19.08h-7.75c-.15 0-.27.12-.27.27v5.64c0 .149-.12.27-.27.27h-4.491c-.149 0-.27-.121-.27-.27V10.387c0-.15.121-.27.27-.27h12.78c.072 0 .14.028.191.08l3.055 3.07c.051.051.08.12.08.192v6.238zM88.377 0l-.027.11.027-.11zm0 0H0v39.338h134.5l9.486-9.606V0h-55.61.001z" mask="url(#4v3esbszwb)"/>
                </g>
                <path fill="#FFF" fill-rule="nonzero" d="M53.293 16.31c-.082-.247-.43-.247-.51 0l-1.668 5.025c-.057.175.072.356.256.356h3.333c.183 0 .313-.18.255-.356l-1.666-5.025zm-37.93-1.698c-.149 0-.27.121-.27.27v3.392c0 .15.121.27.27.27h5.431l.615-.617V15.23l-.615-.618h-5.431z" transform="translate(-115 -50) translate(115 50)"/>
            </g>
        </g>
    </g>
</svg>
