<svg xmlns="http://www.w3.org/2000/svg" width="32" height="32" viewBox="0 0 32 32">
    <g fill="none" fill-rule="evenodd">
        <g>
            <g transform="translate(-278.000000, -9.000000) translate(278.000000, 9.000000)">
                <rect width="31" height="31" x=".5" y=".5" stroke="#FFF" stroke-opacity=".12" rx="15.5"/>
                <g fill="#FFF">
                    <path d="M10.025 11.94L13.854 15.768 15.267 14.354 11.44 10.525z" transform="translate(8.000000, 8.000000)"/>
                    <path d="M7 0C3.134 0 0 3.134 0 7s3.134 7 7 7 7-3.134 7-7-3.134-7-7-7m0 2c2.757 0 5 2.243 5 5s-2.243 5-5 5-5-2.243-5-5 2.243-5 5-5" transform="translate(8.000000, 8.000000)"/>
                </g>
            </g>
        </g>
    </g>
</svg>
